<svg width="235" height="235" viewBox="0 0 235 235" fill="none" xmlns="http://www.w3.org/2000/svg">
<g clip-path="url(#clip0_1_46)">
<path d="M220.968 152.792C208.88 140.695 192.107 135.57 170.565 141.343L93.7503 64.4501L94.7656 60.6112C99.1898 44.0116 94.4094 26.1685 82.2941 14.0532C69.9584 1.7079 52.4215 -2.82182 35.8361 1.73406C34.6739 2.05309 33.6159 2.6717 32.7678 3.528C31.9197 4.38431 31.3113 5.44829 31.0035 6.61352C30.6967 7.77852 30.7009 9.00364 31.0157 10.1665C31.3305 11.3294 31.945 12.3893 32.7977 13.2403L51.2934 31.736C56.7007 37.1566 56.6479 45.8379 51.3067 51.1933C46.0077 56.5065 37.1006 56.4982 31.8228 51.2066L13.3234 32.7059C12.471 31.8531 11.4095 31.2392 10.2452 30.9258C9.08084 30.6123 7.8546 30.6103 6.68926 30.92C5.52437 31.2299 4.46131 31.8403 3.6065 32.6902C2.7517 33.5401 2.13513 34.5996 1.81852 35.7627C-2.67081 52.1659 1.74554 69.8115 14.1404 82.2064C26.2236 94.2984 42.9761 99.4417 64.5305 93.6562L141.351 170.549C135.618 192.084 140.564 208.695 152.814 220.946C165.166 233.306 182.711 237.803 199.26 233.262C200.422 232.943 201.481 232.324 202.329 231.468C203.177 230.612 203.786 229.548 204.094 228.382C204.401 227.217 204.397 225.992 204.082 224.829C203.767 223.666 203.153 222.606 202.3 221.755L183.808 203.263C178.401 197.842 178.454 189.16 183.795 183.806C189.16 178.468 198.047 178.553 203.279 183.799L221.779 202.295C222.632 203.147 223.693 203.761 224.858 204.074C226.022 204.387 227.248 204.389 228.413 204.08C229.578 203.77 230.641 203.159 231.495 202.31C232.35 201.46 232.967 200.401 233.283 199.238C237.773 182.837 233.357 165.187 220.968 152.792Z" fill="#FFB600"/>
<path d="M73.6911 122.358L8.06004 187.997C-2.68066 198.738 -2.68066 216.204 8.06004 226.944C18.8007 237.685 36.2669 237.685 47.0072 226.944L112.637 161.307L73.6911 122.358ZM40.5391 205.578C37.8495 208.268 33.4937 208.268 30.8041 205.578C28.1149 202.889 28.1149 198.532 30.8041 195.843L72.5625 154.077C75.2517 151.388 79.6088 151.388 82.2975 154.077C84.9867 156.766 84.9867 161.123 82.2975 163.812L40.5391 205.578ZM232.979 13.8857L221.11 2.01679C220.025 0.931158 218.608 0.239486 217.084 0.0517052C215.56 -0.136076 214.018 0.190809 212.701 0.980407L176.19 22.8845C172.348 25.1891 171.696 30.489 174.863 33.6564L177.769 36.5618L131.421 82.7205L150.898 102.197L197.246 56.0388L201.34 60.1334C204.508 63.2999 209.808 62.6482 212.112 58.8065L234.016 22.2956C234.806 20.9788 235.132 19.436 234.944 17.9123C234.757 16.3886 234.065 14.9713 232.979 13.8857Z" fill="#303030"/>
</g>
<defs>
<clipPath id="clip0_1_46">
<rect width="235" height="235" fill="white"/>
</clipPath>
</defs>
</svg>
